<?xml version="1.0" encoding="UTF-8"?>
<!-- Generator: Adobe Illustrator 23.0.0, SVG Export Plug-In . SVG Version: 6.00 Build 0)  -->
<svg version="1.1" id="Layer_1" xmlns="http://www.w3.org/2000/svg" xmlns:xlink="http://www.w3.org/1999/xlink" x="0px" y="0px"
	 viewBox="0 0 173 28.2" style="enable-background:new 0 0 173 28.2;" xml:space="preserve">
<style type="text/css">
	.st0{fill:#54C8E8;}
	.st1{fill:#FFA400;}
	.st2{fill:#E43D30;}
	.st3{fill:#FFFFFF;}
</style>
<g>
	<path class="st0" d="M27,8.2V18L7.4,20v5.5l27,2.7V7.4L27,8.2z"/>
	<path class="st1" d="M0,0v20.7l7.4-0.7v-9.8L27,8.2V2.7L0,0z"/>
	<path class="st2" d="M27,8.2L7.4,10.1v9.8l19.6-2V8.2z"/>
</g>
<path class="st3" d="M48,15.3c0-3.9,3.1-7,7-7h0.1c2.8-0.1,5.3,1.6,6.4,4.1l-2.6,1.1c-0.6-1.6-2.1-2.6-3.8-2.5
	c-2.3,0-4.2,1.9-4.2,4.2c0,0,0,0,0,0c0,0,0,0.1,0,0.1c0,2.4,1.8,4.3,4.2,4.3c0,0,0,0,0,0h0.1c1.7,0,3.2-1.1,3.8-2.6l2.6,1.1
	c-1.1,2.6-3.7,4.3-6.5,4.2C51.2,22.3,48,19.2,48,15.3C48,15.3,48,15.3,48,15.3L48,15.3"/>
<path class="st3" d="M75,15.3c0-2.3-1.9-4.2-4.2-4.2c-2.3,0-4.2,1.9-4.2,4.2s1.9,4.1,4.2,4.1S75,17.6,75,15.3
	C75,15.3,75,15.3,75,15.3 M63.9,15.3c0-3.9,3.1-7,7-7s7,3.1,7,7s-3.1,7-7,7S63.9,19.1,63.9,15.3"/>
<path class="st3" d="M80.2,8.5h2.9v1.6c0.9-1.3,2.4-2,4-1.9c1.8-0.1,3.6,0.8,4.5,2.4c1-1.5,2.7-2.5,4.5-2.4c3.7,0,5.6,2.2,5.6,5.7
	v8.1h-2.9v-7.9c0-2-1.1-3.4-3.1-3.4c-1.8,0-3.2,1.2-3.2,3.6V22h-2.9V14c0.2-1.6-0.9-3-2.5-3.2c-0.2,0-0.4,0-0.5,0
	c-1.9,0-3.3,1.3-3.3,3.8V22h-2.9V8.5z"/>
<path class="st3" d="M117.6,15.3c0-3.9,3.1-7,7-7l0,0h0.1c2.8-0.1,5.3,1.6,6.4,4.1l-2.6,1.1c-0.6-1.6-2.1-2.6-3.8-2.5
	c-2.3,0-4.2,1.9-4.2,4.2c0,0,0,0,0,0c0,0,0,0.1,0,0.1c0,2.4,1.8,4.3,4.2,4.3c0,0,0,0,0,0h0.1c1.7,0,3.2-1.1,3.8-2.6l2.6,1.1
	c-1.1,2.6-3.7,4.3-6.5,4.2C120.8,22.3,117.6,19.2,117.6,15.3C117.6,15.3,117.6,15.3,117.6,15.3L117.6,15.3"/>
<path class="st3" d="M144.1,15.3c0-2.3-1.9-4.2-4.1-4.2c-2.3,0-4.2,1.9-4.2,4.2s1.9,4.1,4.2,4.1l0,0
	C142.2,19.4,144.1,17.6,144.1,15.3 M132.9,15.3c0-3.9,3.1-7,7-7s7,3.1,7,7s-3.1,7-7,7S132.9,19.1,132.9,15.3"/>
<path class="st3" d="M149.2,8.5h2.9v2.1c0.7-1.4,2.2-2.2,3.7-2.1h1.6v2.8h-2c-2.4,0-3.3,1.2-3.3,4V22h-2.9V8.5z"/>
<path class="st3" d="M161.9,13.8h8.1c-0.4-1.9-2.1-3.2-4-3C164.2,10.8,162.5,12,161.9,13.8 M159,15.3c0-3.9,3.1-7,6.9-7.1h0.1
	c3.7-0.1,6.8,2.7,6.9,6.4c0,0.1,0,0.3,0,0.5v1.1h-11.2c0.3,2.1,2.2,3.6,4.4,3.5c1.7,0.1,3.3-0.9,4-2.5l2.4,1.3
	c-1.9,3.5-6.3,4.7-9.8,2.8C160.5,20.2,159.1,17.8,159,15.3"/>
<path class="st3" d="M104.1,19.1l2.6-1.4c0.7,1.3,2,2,3.5,2c1.6,0,2.5-0.8,2.5-1.8s-1.6-1.4-3.3-1.7c-2.3-0.5-4.7-1.2-4.7-4
	c0-2.1,2-4.1,5.2-4.1c2.1-0.1,4.2,0.9,5.4,2.6l-2.4,1.3c-0.7-1-1.8-1.6-3-1.5c-1.5,0-2.3,0.8-2.3,1.6s1.2,1.2,3.2,1.7
	c2.2,0.5,4.7,1.2,4.7,4c0,1.9-1.6,4.4-5.5,4.4C107.7,22.4,105.4,21.2,104.1,19.1"/>
</svg>
