<svg xmlns="http://www.w3.org/2000/svg" viewBox="0 0 188.83 51.51"><defs><style>.cls-1{fill:#fff;}</style></defs><title>footer-heraldo-sin-iso</title><g id="Capa_2" data-name="Capa 2"><g id="Layer_1" data-name="Layer 1"><polygon class="cls-1" points="16.52 2.4 19.29 3.05 19.29 11.58 10.17 11.58 10.17 3.05 12.95 2.4 12.95 0.93 0 0.93 0 2.4 2.78 3.05 2.78 22.63 0 23.27 0 24.75 12.95 24.75 12.95 23.27 10.17 22.63 10.17 13.59 19.29 13.59 19.29 22.63 16.45 23.27 16.45 24.75 29.46 24.75 29.46 23.27 26.69 22.63 26.69 3.05 29.46 2.4 29.46 0.93 16.52 0.93 16.52 2.4"/><path class="cls-1" d="M48.7,23.28H45.24a3.69,3.69,0,0,1-2.85-1.08V14.5H47s.16-3.34,1.49-4.16l-.4-.75a5.42,5.42,0,0,0-2.64,1.73h-3V2.44h7.14l2.6,6H53.5V.93H32.22V2.4L35,3.05V22.63l-2.78.65v1.47h20.7l1.34-8.82H52.88Z"/><path class="cls-1" d="M127.05,23.24h-2.56a3.74,3.74,0,0,1-2.89-1V3.05l2.78-.65V.93H111.43V2.4l2.78.65V22.63l-2.78.64v1.48h19.8l1.8-9.87H131.7Z"/><path class="cls-1" d="M98.27,0l-2,.39L94.7.72l-9,22-2.2.6v1.48h8.26V23.27l-3.89-.75,1.88-4.94A7.8,7.8,0,0,1,91,17h.15c.32.15.88,1.32,3.94,1.32a2.9,2.9,0,0,0,2-.72l1.81,5.14-2.81.5v1.48h13.31V23.27l-2.1-.43ZM95.1,15.13a3.6,3.6,0,0,1-1-.38,4.71,4.71,0,0,0-3.07-.66L93.55,7.6l2.63,7.53Z"/><path class="cls-1" d="M147.23.93H134.47V2.4l2.77.65V22.63l-2.77.64v1.48h11.1c11.47,0,16-6.5,16-12.38C161.55,5.7,156.1.93,147.23.93Zm.33,22.34a4.43,4.43,0,0,1-3-1.07V2.08c5.3.32,9,4.48,9,11.62C153.54,19.76,150.51,23.27,147.56,23.27Z"/><path class="cls-1" d="M80.39,21.57h-.45l-5-8.41V13c3.57-1.36,5.12-3.55,5.12-6,0-3.26-3.06-6.06-12-6.06h-11V2.4l2.78.65V22.63l-2.78.64v1.48H69.74V23.27l-2.56-.64V14.42h.62l6.09,10.33h8l1.49-4.16L83,19.84Zm-10.65-8.8H67.18V2.4c3.29.25,6,2.23,6,5.6A5,5,0,0,1,69.74,12.77Z"/><path class="cls-1" d="M176.07.07c-6.37,0-12.76,5-12.76,12.34s6.39,12.34,12.76,12.34,12.76-5,12.76-12.34S182.43.07,176.07.07Zm.16,23.5c-4.6.07-6-5.45-6.07-11.06-.1-5.85,1-11.1,5.75-11.17s6,5.42,6.1,11C182.07,18.58,180.8,23.54,176.23,23.57Z"/><path class="cls-1" d="M2.89,32.74H4.61L12.29,43.4,20,32.74h1.73l1.47,18.39H18.24l-.6-7.73-5,6.85H11.59l-5-6.85L6,51.13H1.42Z"/><path class="cls-1" d="M25.52,33H39.15v4.4H30.26V40H37.4V44.1H30.26v2.78h9.15v4.25H25.52Z"/><path class="cls-1" d="M41.65,33h3.83C53,33,58.83,35.26,58.83,42S53,51.13,45.48,51.13H41.65Zm12.28,9.19c0-3.42-2.55-4.73-6.44-4.73h-1v9.42h1C51.38,46.85,53.93,45.56,53.93,42.16Z"/><path class="cls-1" d="M61.07,33h4.81V51.13H61.07Z"/><path class="cls-1" d="M71.91,51.13H67.12l9.3-18.39H78l9.3,18.39H82.21l-1-2.14H72.94Zm5.15-10.56-2.29,4.69h4.58Z"/><path class="cls-1" d="M94.6,42.06c0-6.62,5.23-9.45,10.43-9.45a17,17,0,0,1,6,1.08L109.69,38a11.53,11.53,0,0,0-4.4-1c-4,0-5.85,2.08-5.85,5.12,0,3.61,2.24,5.05,4.79,5.05a7.57,7.57,0,0,0,2.47-.38V42.45h4.67v7.31A15.77,15.77,0,0,1,104,51.39C99.44,51.39,94.6,48.76,94.6,42.06Z"/><path class="cls-1" d="M130.68,51.13h-5.43l-3.74-5.26c-.67.06-1.36.08-2.11.08h-.49v5.18h-4.69V33h3.84c8,0,11.56,1.85,11.56,6.52a5.51,5.51,0,0,1-3.45,5.28ZM119.55,42c3.94,0,5.23-.8,5.23-2.4s-1.29-2.39-5.23-2.39h-.64V42Z"/><path class="cls-1" d="M131.22,42.09c0-6.62,5.31-9.51,9.94-9.51s9.92,3,9.92,9.51-5.28,9.42-9.92,9.42S131.22,48.68,131.22,42.09Zm15,0a5.09,5.09,0,0,0-10.18,0,5.09,5.09,0,1,0,10.18,0Z"/><path class="cls-1" d="M152.83,43.53V33h4.82v9.81c0,2.91,1.18,4.41,3.89,4.41s3.94-1.5,3.94-4.41V33h4.63V43.53c0,5.07-3.55,8-8.63,8S152.83,48.66,152.83,43.53Z"/><path class="cls-1" d="M172.92,33h4.2c8,0,11.71,2,11.71,6.8,0,4.48-3.47,6.7-10.38,6.7h-.84v4.66h-4.69Zm5.71,9.32c4,0,5.36-.85,5.36-2.52s-1.34-2.52-5.36-2.52h-1v5Z"/></g></g></svg>