<?xml version="1.0" encoding="utf-8"?>
<!-- Generator: Adobe Illustrator 23.0.0, SVG Export Plug-In . SVG Version: 6.00 Build 0)  -->
<svg version="1.1" id="Capa_1" xmlns="http://www.w3.org/2000/svg" xmlns:xlink="http://www.w3.org/1999/xlink" x="0px" y="0px"
	 viewBox="0 0 23.6 23.6" style="enable-background:new 0 0 23.6 23.6;" xml:space="preserve">
<style type="text/css">
	.st0{fill:#FFFFFF;}
</style>
<path class="st0" d="M7.5,19c-0.1-0.1-0.3-0.2-0.4-0.2c-1.2-0.8-1.4-2.1-1.4-2.9c0.1-1.2,0.6-1.9,1.5-2.5c1.3-0.9,2.8-0.4,2.8-0.4
	V9.7c0,0,0,0,0,0V8.9c-0.7-0.1-1.5-0.1-2.2,0C7.4,9,6.9,9.1,6.4,9.3C5.7,9.6,5,10,4.4,10.5c-0.7,0.6-1.3,1.3-1.7,2.1
	c-0.2,0.3-0.8,1.4-0.9,3.3c0,1.1,0.3,2.2,0.4,2.6v0c0,0,0,0,0,0c0,0.1,0.1,0.2,0.1,0.2l0-0.1c0.1,0.3,0.5,1.2,1,1.9
	c0.5,0.6,1.1,1.2,1.7,1.6l0,0l0,0c1.9,1.3,4,1.2,4,1.2c0.4,0,1.6,0,3-0.7c1.6-0.7,2.4-1.8,2.4-1.8c0.1-0.2,0.9-1,1.3-2.2
	c0.4-0.9,0.5-2.1,0.5-2.5V8c0,0,0.7,0.4,0.7,0.4s0.9,0.6,2.4,1c1,0.3,2.4,0.3,2.4,0.3V6.7h0c0,0,0,0,0,0V5.9
	c-0.5,0.1-1.5-0.1-2.5-0.6C19.2,5.2,19,5.1,18.9,5c0,0,0,0,0,0c-0.4-0.3-0.8-0.6-1.2-1c-0.9-1-1.2-2-1.3-2.7h0c-0.1-0.6-0.1-1-0.1-1
	h-4v15.2c0,0.5,0,1.1-0.2,1.6c-0.3,0.8-0.9,1.6-1.7,1.9C9.4,19.5,8.5,19.5,7.5,19L7.5,19z"/>
</svg>
