<svg xmlns="http://www.w3.org/2000/svg" viewBox="0 0 55.75 20.4"><defs><style>.cls-1{fill:#fff;}</style></defs><title>logo-editor80-b</title><g id="Capa_2" data-name="Capa 2"><g id="Capa_1-2" data-name="Capa 1"><path class="cls-1" d="M3.29,18.65a3,3,0,0,0,1.84-.73l.79,1.45a4.61,4.61,0,0,1-3,1,2.72,2.72,0,0,1-2.92-3,4.36,4.36,0,0,1,4.27-4.63c1.47,0,2.31.74,2.31,2,0,1.8-1.9,2.58-4.33,2.85C2.31,18.31,2.64,18.65,3.29,18.65ZM4.49,15c0-.36-.19-.55-.59-.55-.56,0-1.29.49-1.56,1.76C3.69,16,4.49,15.65,4.49,15Z"/><path class="cls-1" d="M7.36,17.91c0-3.21,1.91-5.15,4.41-5.15a3.56,3.56,0,0,1,.92.09l.61-3.31h2.18l-1.23,6.78a26.4,26.4,0,0,0-.48,3.9H11.59a13.89,13.89,0,0,1,.18-1.62h0a2.81,2.81,0,0,1-2.4,1.79C8.15,20.4,7.36,19.45,7.36,17.91Zm5-3.16,0-.3a2.28,2.28,0,0,0-.67-.07c-1,0-2.08,1.08-2.08,3.15,0,.61.18,1,.59,1C10.87,18.52,11.78,17.66,12.34,14.75Z"/><path class="cls-1" d="M16.65,13h2.2l-1.32,7.27h-2.2Zm.13-2.14A1.28,1.28,0,1,1,18,12.08,1.28,1.28,0,0,1,16.78,10.82Z"/><path class="cls-1" d="M19.75,14.6,20,13h1.13l.33-1.8,2.34-.64L23.4,13h1.84L25,14.6H23.08s-.53,2.94-.53,2.94c-.13.67-.07,1,.27,1a1.89,1.89,0,0,0,1-.42l.64,1.5a4.27,4.27,0,0,1-2.52.79c-1.42,0-2-.76-1.6-2.74,0,0,.56-3.06.55-3.06Z"/><path class="cls-1" d="M25.32,17.37a4.35,4.35,0,0,1,4.23-4.61,2.83,2.83,0,0,1,3,3.06c0,2.68-1.71,4.58-4.18,4.58A2.85,2.85,0,0,1,25.32,17.37Zm5-1.57c0-.86-.3-1.36-.95-1.36-1.11,0-1.78,1.66-1.78,2.88,0,.85.3,1.41,1,1.41C29.72,18.72,30.3,17,30.3,15.8Z"/><path class="cls-1" d="M33.89,13H36c-.06.46-.22,1.29-.31,1.65h0c.46-.87,1.2-1.84,2.28-1.84a1.92,1.92,0,0,1,.86.16L38.16,15a1.61,1.61,0,0,0-.68-.15c-.94,0-1.91.64-2.64,4.81l-.09.53H32.57Z"/><path class="cls-1" d="M39.43,13c0-1.76,1.62-2.88,3.59-2.88,1.82,0,3,.92,3,2.27,0,1.19-.77,1.91-2.12,2.57a2.64,2.64,0,0,1,1.51,2.28c0,2.08-1.75,3.11-3.89,3.11s-3.2-1-3.2-2.36.95-2.25,2.33-2.88A2.61,2.61,0,0,1,39.43,13Zm1.13,4.75a.94.94,0,0,0,1.07,1,1.29,1.29,0,0,0,1.44-1.25c0-.53-.37-.94-1.14-1.41-.88.44-1.36,1-1.36,1.69Zm3.17-5.15a.8.8,0,0,0-.9-.85,1,1,0,0,0-1.13,1.08,1.53,1.53,0,0,0,.86,1.25C43.35,13.67,43.74,13.21,43.74,12.64Z"/><path class="cls-1" d="M46.08,17.27a4.36,4.36,0,0,1,4.39-4.51,2.94,2.94,0,0,1,3.14,3.16,4.21,4.21,0,0,1-4.36,4.48A3,3,0,0,1,46.08,17.27Zm5.3-1.38c0-.89-.3-1.45-1.1-1.45-1.16,0-1.88,1.41-1.88,2.77,0,1,.34,1.51,1.08,1.51,1.25,0,1.9-1.48,1.9-2.83Z"/><path class="cls-1" d="M21.22,3.56a1,1,0,1,1-.95,1,1,1,0,0,1,.95-1Zm4.56,1.21a4.58,4.58,0,0,0,0-.76L24.53,3.6a3.45,3.45,0,0,0-.41-.9l.51-1.2A4.57,4.57,0,0,0,24.07,1l-1.16.59A3.43,3.43,0,0,0,22,1.22L21.49,0a4.64,4.64,0,0,0-.76,0l-.41,1.24a3.41,3.41,0,0,0-.9.41l-1.2-.51a4.57,4.57,0,0,0-.52.55l.59,1.16a3.46,3.46,0,0,0-.35.93l-1.21.49a4.7,4.7,0,0,0,0,.76L18,5.47a3.42,3.42,0,0,0,.41.9l-.51,1.2a4.74,4.74,0,0,0,.55.52l1.16-.59a3.42,3.42,0,0,0,.93.35L21,9.07a4.63,4.63,0,0,0,.76,0l.41-1.24a3.38,3.38,0,0,0,.9-.41l1.2.51a4.5,4.5,0,0,0,.52-.55l-.58-1.16a3.36,3.36,0,0,0,.35-.93Z"/><path class="cls-1" d="M28.7,6.64a1,1,0,1,1-.49,1.3,1,1,0,0,1,.49-1.3ZM33.38,6a4.41,4.41,0,0,0-.31-.69l-1.3.1A3.38,3.38,0,0,0,31,4.74V3.43a4.59,4.59,0,0,0-.71-.27l-.85,1a3.39,3.39,0,0,0-1,0l-.91-.93a4.44,4.44,0,0,0-.69.31l.1,1.3a3.42,3.42,0,0,0-.68.72H25a4.5,4.5,0,0,0-.27.71l1,.85a3.44,3.44,0,0,0,0,1L24.83,9a4.56,4.56,0,0,0,.31.69l1.3-.09a3.42,3.42,0,0,0,.72.68v1.31a4.6,4.6,0,0,0,.71.27l.85-1a3.4,3.4,0,0,0,1,0l.92.93a4.58,4.58,0,0,0,.69-.31l-.1-1.3a3.37,3.37,0,0,0,.68-.72h1.3a4.39,4.39,0,0,0,.27-.71l-1-.85a3.42,3.42,0,0,0,0-1Z"/><path class="cls-1" d="M54.55,12.59l-.37-.53c-.21-.29-.24-.32-.36-.32h0v.85h-.26V10.71h.54c.4,0,.64.18.64.51a.49.49,0,0,1-.51.49h0a1.14,1.14,0,0,1,.2.24l.45.63ZM54,10.92h-.25v.62h.27c.27,0,.39-.11.39-.31S54.32,10.92,54,10.92Z"/><path class="cls-1" d="M55.55,11.65A1.51,1.51,0,1,1,54,10.14h0A1.51,1.51,0,0,1,55.55,11.65ZM54,9.94a1.71,1.71,0,1,0,1.71,1.71h0A1.71,1.71,0,0,0,54,9.94Z"/></g></g></svg>