<svg xmlns="http://www.w3.org/2000/svg" viewBox="0 0 404.09 87.24"><defs><style>.cls-1{fill:#fff;}.cls-2{opacity:0.7;}</style></defs><title>main-logo</title><g id="Capa_2" data-name="Capa 2"><g id="Capa_1-2" data-name="Capa 1"><path class="cls-1" d="M23.38,43.16C7.13,42.29,0,33.77,0,21.85,0,9.59,11.19,1.53,24.84.13V.2C12.52,1.46,2.26,9.19,2.26,21.71,2.26,34,8.72,42,23.38,43.09Zm0-.13c-13.12-1.07-19-8.86-19-21.38C4.33,8.79,13.65,1.33,24.84.27V.33C15,1.4,6.59,8.19,6.59,21.51,6.59,34.23,11.72,42,23.38,43Zm0-.14c-10.19-1-14.72-8.45-14.72-21.44,0-13.72,7.66-20,16.18-21V.47c-7.32.86-13.92,6.79-13.92,20.84,0,13.26,3.73,20.52,12.46,21.52Zm0-.13C16.18,41.9,13,34.77,13,21.25,13,6.73,18.72,1.4,24.84.53V.6c-4.86.73-9.59,5.59-9.59,20.51,0,13.79,2.47,20.58,8.13,21.59Zm0-.13c-4.27-.87-6.06-7.66-6.06-21.58C17.32,5.79,21.18,1.2,24.84.67V.73c-2.46.34-5.26,4.6-5.26,20.19,0,14.11,1.13,20.84,3.8,21.64Zm2-.07c.8-.2,1.86-.66,1.86-3.4V29.77c0-3.73-1.26-5-3.6-6.32v-.07h2.6c1.93,1.4,2.8,2.4,2.8,6.39V39c0,2.53-2.53,3.4-3.66,3.6Zm0,.53c3.73-.2,13.32-1.33,16.31-2.59V29.77c0-3.93.67-4.79,2.8-6.39h2.6v.07c-2.66,1.46-3.6,2.46-3.6,6.32V40.89C40,42,29.44,43,25.38,43.16Zm0-.13c3-.2,10.39-1.47,12.72-3.06V29.77c0-3.86.26-4.93,1.2-6.39h2.6v.07c-1.47,1.46-2,2.46-2,6.32V40.23c-2.67,1.4-11.19,2.6-14.52,2.8Zm0-.13c2.33-.2,7.46-1.34,9.06-3.27V29.77a23,23,0,0,0-.34-5.26l-.27-1.06v-.07h2.93v.07a13.83,13.83,0,0,0-.46,3.92V39.76c-2,1.8-8.33,2.94-10.92,3.13Zm0-.13c1.53-.21,5.46-1.21,5.46-3.67V29.77c0-3.93-.73-4.86-2-6.32v-.07h2.6c.73,1.46,1.2,2.53,1.2,6.39V39c0,2.46-5.4,3.53-7.26,3.73ZM27,.13A57,57,0,0,1,40,1.66V3.73C37.83,2.2,32,.4,27,.2Zm0,.14C32.44.6,38,3.06,40.09,5.2V6.93H40C38.1,4.26,32.5.87,27,.33ZM27,.4C33,1.27,38.23,5.06,40.16,9v2.2h-.07C37.9,6.66,33.3,1.53,27,.47Zm0,.13C33.57,1.8,38.63,8.59,40.23,13.72v2.06h-.07C37.7,10.32,33.77,2.2,27,.6Z"/><path class="cls-1" d="M43.85,42.63v-.07C48.45,40.7,50.45,38,53,32.5l.13.07c-2.07,5-3.67,8.19-6,10.06Zm5.39,0v-.07a64,64,0,0,0,4-9.92l.13.06c-1.19,3.8-2.26,7.93-.66,9.86v.07Zm6.27,0c-4-2.2-2.87-6.6-2-9.86l.13.07a9.41,9.41,0,0,0-.4,2.86c0,3.26,1.2,5.46,5.66,6.86v.07Zm6.92,0v-.07c3.73-1.8,4-3.66,1.54-9.52l-1.6-3.87H54l.47-1.26H64l2.19,5.39c2.27,5.8,2.2,7.53-.66,9.33ZM55.24,25.78H61l-3.26-8,1.07-2.59,4.79,11.92H54.77ZM61,10l9.66,23.78c2.33,5.66,2.19,7.79.93,8.86H68.49v-.07C70.83,41,71,40.1,68.36,33.5L59.9,12.59ZM63,4.73l12,29.5c2.07,5.27,2.86,7.4,2.6,8.4H74.56v-.07c.73-1.13.46-3.26-1.74-8.59L62,7.39ZM64.9.2h.53l14,34.5a28.08,28.08,0,0,0,4.4,7.86v.07H80.15c-.2-1.14-.87-3.2-2.93-8.19L64.1,2.13Zm4.79,0,14.19,35c1.8,4.26,3.4,6,5.86,7.39v.07H86.68c-1.34-1.14-3.2-3.07-5-7.73L67.56.2Z"/><path class="cls-1" d="M107.75.2C100.56.73,91.9,4.06,91.9,13.39c0,6.39,2.93,10.19,8.19,13.18,6.13,3.54,10,5.33,10,9.86,0,2.93-1.33,5.47-4.19,6.2v-.07c1.66-.73,2.53-2.86,2.53-5,0-4.32-3.6-5.86-10-9.59-5.33-3-8.13-7-8.13-13.65C90.3,4.4,100,.67,107.75.13Zm-3.66,42.56C99,41,92.43,34,90.5,29.17l-.07-2.46h.07c2.26,5.26,8.59,13.85,13.59,16Zm0,.13c-5.06-1.2-11.26-5.59-13.32-9l-.14-2.4h.07c2,4.33,8.39,9.79,13.39,11.39Zm0,.14c-4.8-.74-11.46-3.33-13.19-5.4l-.13-2.06h.06C93.5,39,99.23,41.9,104.09,43Zm0,.13c-4.26-.33-11.26-1.26-13-2.13L91,39.16c2.27,1.54,8.59,3.4,13.06,3.93ZM107.75.33C102,.87,95,3.73,95,11.46c0,6,3.46,9.46,8.39,12.25,5.73,3.4,9.93,5.26,9.93,10.52,0,4.47-2.34,7.8-7.46,8.53V42.7c4-.74,5.86-3.67,5.86-7.33,0-4.93-4-6.73-10-10.26-5.06-2.8-8.26-6.46-8.26-12.72C93.5,4,101.36.8,107.75.27Zm0,.14c-4.46.53-9.52,2.86-9.52,9,0,5.6,3.79,8.66,8.59,11.33,5.26,3.13,9.86,5.26,9.86,11.19s-3.27,10.25-10.79,10.85v-.06c6.39-.73,9.12-4.6,9.12-9.66,0-5.59-4.4-7.73-9.92-10.92-4.8-2.87-8.46-5.87-8.46-11.73C96.63,3.6,102.69.93,107.75.4Zm0,.13c-3,.53-6.39,2.26-6.39,7.06,0,5.26,4.26,7.59,8.79,10.32,4.8,2.87,9.79,5.26,9.79,11.86,0,7.26-4.2,12.65-14,13.19V43c8.59-.6,12.45-5.4,12.45-12,0-6.33-4.79-8.52-9.86-11.59-4.59-2.66-8.65-5.26-8.65-10.79S104,1.07,107.75.53Zm0,.13c-1.66.47-3.2,1.8-3.2,5,0,4.86,4.73,6.93,8.93,9.39,4.46,2.66,9.79,5.26,9.79,12.52,0,8.86-5.2,15-17.38,15.52v-.07c11-.53,15.72-6.33,15.72-14.32,0-5.12-2.94-8.06-6.33-10.12l-3.47-2.13-3.19-1.87c-3.13-1.86-5.67-4.19-5.67-8a5.62,5.62,0,0,1,4.8-6Zm1.47-.6A61.59,61.59,0,0,1,121,1.73l.06,1.73c-2.13-1.4-9-3.06-11.85-3.26Zm0,.14c3.26.33,9.86,2.39,11.92,4.46l.07,1.6h-.07c-2.33-2.87-8.13-5.26-11.92-6Zm0,.13c4.33.93,9.65,4,12,7.46l.07,1.93h-.07a22.07,22.07,0,0,0-12-9.32Zm0,.13c5,1.4,9.92,6.53,12.25,11.33l.07,2.13h-.07C118.61,8.66,114.54,2.4,109.22.6Z"/><path class="cls-1" d="M138.41.73C135.61,1.07,127.15,2,125,3.06V.67h13.39Zm0,.14c-3.8.73-12.12,3.92-13.33,6.52H125V5.13c.86-1.8,9.52-3.8,13.39-4.33Zm0,.13c-3.87,1.26-11.73,6.46-13.33,11.32H125V9.72c1.27-3.93,9.66-7.92,13.39-8.79Zm0,.13c-4.66,2.13-10.86,9.26-13.33,16.12H125V14.52c2.13-5.93,9.39-11.86,13.39-13.45Zm2.73-.46v33.7c0,5.33-.94,6.46-3.6,8.26h-3v-.07c3.33-1.73,4.67-2.93,4.67-8.19V.67Zm3.86,0v33.7c0,5.39-.4,6.39-1.53,8.26h-3v-.07c1.8-1.8,2.6-2.86,2.6-8.19V.67Zm3.93,0v33.7c0,5.33.2,6.59.73,8.19v.07H146.2v-.07c.53-1.6.73-2.86.73-8.19V.67Zm3.86,0v33.7c0,5.33.67,6.33,2.54,8.19v.07h-3c-1.07-1.8-1.47-2.93-1.47-8.26V.67Zm3.87,0v33.7c0,5.26,1.2,6.39,4.59,8.19v.07h-3c-2.6-1.74-3.53-2.93-3.53-8.26V.67Zm14.12,0V3.06c-2.14-1.06-10.59-2-13.39-2.33V.67ZM157.39.8c3.86.53,12.52,2.53,13.39,4.33V7.39h-.07c-1.2-2.6-9.52-5.79-13.32-6.52Zm0,.13c3.73.87,12.12,4.86,13.39,8.79v2.6h-.07C169.11,7.46,161.25,2.26,157.39,1Zm0,.14c4,1.59,11.25,7.52,13.39,13.45v2.73h-.07c-2.46-6.86-8.66-14-13.32-16.12Z"/><path class="cls-1" d="M179.06,34.37c0,5.33-.93,6.46-3.6,8.26h-3v-.07c3.33-1.73,4.66-2.93,4.66-8.19V8.92c0-5.32-1.67-6.39-4.66-8.19V.67h2.6c2.86,1.59,4,3.46,4,8.25Zm3.86,0c0,5.39-.39,6.39-1.53,8.26h-3v-.07c1.79-1.8,2.59-2.86,2.59-8.19V8.86c0-4.2-1.19-6.73-3.59-8.13V.67h2.46c2.07,1.26,3.06,4.53,3.06,8.19Zm3.93,0c0,5.33.2,6.59.74,8.19v.07h-3.47v-.07c.54-1.6.74-2.86.74-8.19V8.86c0-2.86-.87-7-2.53-8.13V.67h2.39c1.4.86,2.13,5.46,2.13,8.12Zm3.87,0c0,5.33.67,6.33,2.53,8.19v.07h-3c-1.06-1.8-1.46-2.93-1.46-8.26V8.79c0-2.53-.54-7.19-1.6-8.06V.67h2.46c.67.86,1.07,5.92,1.07,8.12Zm3.86,0c0,5.26,2.13,6.46,5.46,8.19v.07h-3.86c-2.6-1.74-3.53-2.93-3.53-8.26V8.73c0-.6-.33-7.27-.53-8V.67h2.46ZM196.71,1.2a5.41,5.41,0,0,1,3.07,1.66c1.66,1.8,2.53,4.6,2.53,8.93,0,5-1.2,9-4.07,11.06,1.27,4.39,3,10.32,5.67,14.18,3.39,5,5.72,5.33,8.52,5.67v.06H212c-4.19,0-6.52-.2-10.05-5.33-2.8-3.86-4.46-10.25-5.53-14.45v-.07c2.73-2.06,3.86-6.12,3.86-11.19,0-4.06-.46-6.93-1.39-8.66a3.26,3.26,0,0,0-2.14-1.79Zm0-.53a64.12,64.12,0,0,1,10.46.73c8.32,1.53,11.46,5,11.46,10.92a11.25,11.25,0,0,1-5.6,9.73,102.19,102.19,0,0,0,6.66,11.85c2.67,4.33,5.73,8,8.39,8.53v.06h-1.66c-2.87,0-5.86-3.86-8.73-8.19a88.41,88.41,0,0,1-6.52-12.12v-.07a11.46,11.46,0,0,0,5.39-9.85c0-5.67-2.8-9-10.32-10.53a50.93,50.93,0,0,0-9.53-1Zm0,.13a40.26,40.26,0,0,1,8.53,1.07c6.72,1.59,9.32,4.72,9.32,10.32a11.6,11.6,0,0,1-5.26,10.06,89,89,0,0,0,6.46,12.45c2.87,4.46,5.73,7.33,8.73,7.79v.07h-1.6c-3.13,0-6.2-2.93-9.13-7.46a81.1,81.1,0,0,1-6.26-12.72v-.07c3.27-2.19,5-5.86,5-10.19,0-5.33-2.33-8.46-8.26-10.12A38.87,38.87,0,0,0,196.71.87Zm0,.13a28.71,28.71,0,0,1,6.73,1.2c5.06,1.67,7,4.8,7,9.93,0,4.46-1.6,8.19-4.79,10.39a67.68,67.68,0,0,0,6.13,13.05c3.13,4.6,5.72,6.73,9.12,7.06v.07h-1.66c-3.67,0-6.27-2-9.4-6.8-2.46-3.66-4.39-8.52-6.06-13.25v-.07c3.13-2.13,4.67-6,4.67-10.52,0-5-1.67-7.86-5.87-9.66A19.9,19.9,0,0,0,196.71,1Zm0,.14a12.7,12.7,0,0,1,4.93,1.39c3.4,1.8,4.73,4.67,4.73,9.46s-1.33,8.59-4.46,10.73c1.6,4.59,3.46,9.85,5.93,13.58,3.19,4.8,5.39,5.67,8.72,6.4v.07h-.86c-3.87,0-6.53-1.14-9.86-6.07-2.67-3.73-4.33-9.32-5.73-13.85v-.07c2.93-2.06,4.2-6.06,4.2-10.85,0-4.53-1-7.4-3.6-9.2a8.62,8.62,0,0,0-4-1.53Z"/><path class="cls-1" d="M245.76.13c-9.32,1.6-19.84,7.73-19.84,21.58,0,12.79,9.19,20.32,21.71,21.38v.07c-13.52-.87-23.85-8.72-23.85-21.31,0-13.46,11.59-20.39,22-21.78Zm0,.14c-7.46,1.79-15.58,6.46-15.58,21.24,0,13.06,6.92,20.18,17.45,21.45V43c-11.52-1.07-19.58-8.59-19.58-21.38,0-14.32,9.12-19.85,17.71-21.45Zm0,.13c-5.93,2-11.32,5.19-11.32,20.91,0,13.13,4.46,20.25,13.19,21.52v.06c-9.79-1.26-15.32-8.39-15.32-21.44,0-15.26,6.53-19.32,13.45-21.12Zm0,.13C242,2.13,238.7,4.6,238.7,21.11c0,13.26,2.07,20.45,8.93,21.59v.06c-7.8-1.13-11.06-8.26-11.06-21.51,0-16.12,4.66-19.38,9.19-20.78Zm0,.14c-2.06,1.39-2.86,2.93-2.86,20.25,0,13.45-.2,20.38,4.73,21.64v.07c-5.86-1.27-6.79-8.33-6.79-21.58,0-17,2.32-19.25,4.92-20.45Zm1.8-.67c13.52.87,23.85,8.86,23.85,21.45,0,13.52-11.53,20.24-21.92,21.64V43c9.53-1.6,19.79-7.53,19.79-21.45,0-12.79-9.2-20.45-21.72-21.51Zm0,.13c11.53,1.07,19.58,8.66,19.58,21.52,0,14.32-8.92,19.91-17.65,21.31v-.07C257.29,41.3,265,36.63,265,21.78c0-13-6.93-20.51-17.45-21.58Zm0,.14c9.66,1,15.32,8.52,15.32,21.58,0,15.32-6.39,19.51-13.39,21v-.07c5.86-1.4,11.26-5.06,11.26-20.78,0-13.12-4.46-20.58-13.19-21.65Zm0,.13c7.73,1,11.06,8.52,11.06,21.65,0,16.11-4.06,19.38-9.13,20.65v-.07c4.07-1.2,7-4,7-20.45,0-13.26-2.2-20.65-8.93-21.71Zm0,.13c5.86,1.07,6.8,8.39,6.8,21.72,0,16.91-1.67,19.24-4.87,20.31v-.07c2.34-1.06,2.8-2.73,2.8-20.11,0-13.39.07-20.72-4.73-21.78Z"/><path class="cls-1" d="M277.23,8.92c0-5.26-1.33-6.46-4.66-8.19V.67h3c2.67,1.93,3.6,2.79,3.6,8.25V34.37c0,4.79-1.13,7-3.73,8.26h-2.86v-.07c3.26-1.26,4.66-2.93,4.66-8.19ZM283,34.37c0,3.4-.73,7.19-2.66,8.26H278.1v-.07c2.13-1.13,3-4.2,3-8.19V8.92c0-5.39-.8-6.19-2.59-8.19V.67h3C282.56,2.6,283,3.46,283,8.92Zm3.93.07c0,2.93-.53,7.32-1.93,8.19h-2.26v-.07c1.53-1.07,2.19-4.46,2.19-8.19V8.92c0-5.32-.19-6.59-.73-8.19V.67h3.47V.73c-.54,1.6-.74,2.87-.74,8.19Zm3.87,0c0,1.19-.2,7.05-.94,8.19h-2.39v-.07c1.06-1.07,1.4-5.26,1.4-8.12V8.92c0-5.39.4-6.32,1.46-8.25h3V.73c-1.87,1.87-2.53,2.87-2.53,8.19Zm3.86,8.19h-2.46v-.07a77,77,0,0,0,.53-8.12V8.92c0-5.39.93-6.32,3.53-8.25h3.86V.73c-3.53,1.6-5.46,2.93-5.46,8.19Zm2-.47c6.86-1.93,15.05-10.12,17.92-18.71h.06l-.13,3.33C312.06,34,302.6,41,296.68,42.23Zm0,.13c5.46-1.06,15.05-6.32,17.51-12.52h.07l-.13,2.87c-2.86,5.59-12.72,9-17.45,9.72Zm0,.14c4.73-.53,13.19-3.07,17.25-6.93H314L313.8,38c-3.73,2.67-14.06,4.26-17.12,4.46Zm0,.13c4.13-.2,11.39-.6,17.05-2.53l-.13,2.6H296.68Z"/><path class="cls-1" d="M313,42.63v-.07c4.6-1.86,6.6-4.59,9.13-10.06l.13.07c-2.07,5-3.67,8.19-6,10.06Zm5.39,0v-.07a64,64,0,0,0,4-9.92l.13.06c-1.19,3.8-2.26,7.93-.66,9.86v.07Zm6.27,0c-4-2.2-2.87-6.6-2-9.86l.13.07a9.41,9.41,0,0,0-.4,2.86c0,3.26,1.2,5.46,5.66,6.86v.07Zm6.92,0v-.07c3.73-1.8,4-3.66,1.54-9.52l-1.6-3.87h-8.33l.47-1.26h9.46l2.19,5.39c2.27,5.8,2.2,7.53-.66,9.33Zm-7.19-16.85h5.79l-3.26-8L328,15.19l4.79,11.92h-8.86ZM330.14,10l9.66,23.78c2.33,5.66,2.19,7.79.93,8.86h-3.07v-.07c2.34-1.6,2.53-2.46-.13-9.06l-8.46-20.91Zm2.06-5.26,12,29.5c2.07,5.27,2.86,7.4,2.6,8.4h-3.07v-.07c.74-1.13.47-3.26-1.73-8.59L331.2,7.39ZM334.07.2h.53l14,34.5a28.08,28.08,0,0,0,4.4,7.86v.07h-3.73c-.2-1.14-.87-3.2-2.93-8.19L333.27,2.13Zm4.79,0,14.19,35c1.8,4.26,3.4,6,5.86,7.39v.07h-3.06c-1.34-1.14-3.2-3.07-5-7.73L336.73.2Z"/><path class="cls-1" d="M361.93,8.92c0-5.32-1.4-6.72-4.66-8.19V.67h2.86c2.6,1.26,3.73,3.46,3.73,8.25V34.37c0,4.79-1.13,7-3.73,8.26h-2.86v-.07c3.26-1.26,4.66-2.93,4.66-8.19Zm5.8,25.52c0,3.33-.74,7.12-2.67,8.19H362.8v-.07c2.13-1.13,3-4.13,3-8.12V8.92c0-4-.87-7-3-8.19V.67h2.26c1.93,1.06,2.67,4.86,2.67,8.25Zm1.93-25.52c0-3.72-.67-7.12-2.2-8.19V.67h2.26c1.4.86,1.94,5.33,1.94,8.19V34.44c0,2.93-.54,7.32-1.94,8.19h-2.26v-.07c1.53-1.07,2.2-4.4,2.2-8.12Zm5.86,25.52c0,1.19-.2,7.05-.93,8.19h-2.4v-.07c1.07-1.07,1.4-5.26,1.4-8.12V8.86c0-2.86-.33-7.06-1.4-8.13V.67h2.4c.73,1.13.93,7,.93,8.19Zm1.4,8.19v-.07a77,77,0,0,0,.53-8.12V8.86a77,77,0,0,0-.53-8.13V.67h2.46v42ZM381.58,1.2c3.2.53,5.86,2.66,5.86,9.52s-1.06,8.86-5.13,10.13v.07c3.6.93,5,2.66,5,9.92,0,9.72-3.13,10.92-5.53,11.26V42c1.2-.34,3.4-1.33,3.4-11.26,0-7.39-.8-8.86-3.73-9.79v-.2c3.46-1.26,4.06-3.13,4.06-10.06s-2-8.92-3.93-9.45Zm0-.53C394.9.67,402.43,4.06,402.43,11c0,5.26-3.26,9.06-11.26,9.86,8,1.6,12.92,3.86,12.92,10.65,0,7.86-9.52,10.79-22.31,11.13v-.07C393.1,42,402,39.56,402,31.44c0-6.73-4.73-9.13-11.65-10.52v-.14c7.19-1.07,10.19-4.4,10.19-9.79,0-7-6.86-10.06-18.92-10.26Zm0,.13C392.3,1.07,398.7,4,398.7,10.92c0,5.66-3.07,8.86-10,9.93,7.19,1.46,11.19,3.59,11.19,10.52,0,8.39-8,10.59-18.12,11.12v-.06c8.73-.53,16-2.6,16-11.19,0-6.93-3.4-8.93-9.93-10.32v-.14c6.4-1.13,8.93-4,8.93-9.86,0-7-5.73-9.52-15.19-10Zm0,.13c8.19.53,13.39,3,13.39,9.93,0,6.06-2.33,8.85-8.53,10,5.86,1.26,9.26,3.4,9.26,10.32,0,8.79-6.26,10.66-13.92,11.19v-.07c6.19-.53,11.79-2.13,11.79-11.18,0-7.07-3.13-8.93-7.93-10.19v-.14c5.27-1.2,7.33-3.73,7.33-9.92,0-6.93-4.4-9.33-11.39-9.86Zm0,.14c5.66.53,9.59,2.86,9.59,9.72,0,6.46-1.6,9-6.92,10.06,5,1.06,7.25,3,7.25,10.19,0,9.19-4.72,10.65-9.72,11.19v-.07c3.73-.53,7.59-1.66,7.59-11.25,0-7.2-1.66-9.06-6-10v-.14c4.73-1.07,5.86-3.4,5.86-10,0-7.06-3.2-8.92-7.66-9.66Z"/><g class="cls-2"><rect class="cls-1" x="5.05" y="70" width="166" height="1"/><rect class="cls-1" x="233.05" y="70" width="166" height="1"/></g><g class="cls-2"><path class="cls-1" d="M202.05,87.24a17.15,17.15,0,0,0,17.14-17.15,17.45,17.45,0,0,0-.61-4.54,15.82,15.82,0,0,1,.27,2.85,15.26,15.26,0,1,1-15.26-15.25,13.94,13.94,0,0,1,1.45.07,17.14,17.14,0,1,0-3,34ZM190.29,58.39a16.63,16.63,0,0,0,24.47,22.32,16.58,16.58,0,1,1-24.47-22.32Z"/><path class="cls-1" d="M189.49,68.26a14,14,0,0,0,.71,4.4,13,13,0,1,1,9.05,9,13.89,13.89,0,0,0,4.4.71,14.17,14.17,0,1,0-14.16-14.16Z"/><path class="cls-1" d="M202,85.88c.3,0,.61,0,.91,0a17.52,17.52,0,0,1-16.66-15.2A15.78,15.78,0,0,0,202,85.88Z"/><polygon class="cls-1" points="203.2 63.02 203.2 63.81 203.6 63.91 204.69 64.16 204.69 64.47 204.69 68.76 200.18 68.76 199.78 68.76 199.78 64.16 201.27 63.81 201.27 63.42 201.27 63.02 194.3 63.02 194.3 63.81 194.7 63.91 195.79 64.16 195.79 64.47 195.79 74.71 194.3 75.06 194.3 75.85 194.7 75.85 201.27 75.85 201.27 75.37 201.27 75.06 200.18 74.8 199.78 74.71 199.78 69.84 204.69 69.84 204.69 70.24 204.69 74.71 203.16 75.06 203.16 75.85 203.56 75.85 210.17 75.85 210.17 75.37 210.17 75.06 209.08 74.8 208.68 74.71 208.68 64.16 210.17 63.81 210.17 63.42 210.17 63.02 203.2 63.02"/></g></g></g></svg>