<svg xmlns="http://www.w3.org/2000/svg" viewBox="0 0 10.42 10.09"><defs><style>.cls-1{fill:#fff;}</style></defs><title>ico-arrow-down</title><g id="Capa_2" data-name="Capa 2"><g id="Capa_1-2" data-name="Capa 1"><path class="cls-1" d="M5,6a.33.33,0,0,0,.48,0l4.87-4.87a.33.33,0,0,0,0-.48L9.8.1a.33.33,0,0,0-.48,0L5.21,4.21,1.11.1A.33.33,0,0,0,.63.1L.1.63a.33.33,0,0,0,0,.48ZM5,6"/><path class="cls-1" d="M9.8,4.12a.33.33,0,0,0-.48,0L5.21,8.22,1.11,4.12a.33.33,0,0,0-.48,0L.1,4.64a.33.33,0,0,0,0,.48L5,10a.33.33,0,0,0,.48,0l4.87-4.87a.33.33,0,0,0,0-.48Zm0,0"/></g></g></svg>