<?xml version="1.0" encoding="utf-8"?>
<!-- Generator: Adobe Illustrator 21.0.1, SVG Export Plug-In . SVG Version: 6.00 Build 0)  -->
<svg version="1.1" id="Capa_1" xmlns="http://www.w3.org/2000/svg" xmlns:xlink="http://www.w3.org/1999/xlink" x="0px" y="0px"
	 viewBox="0 0 10.4 10.1" style="enable-background:new 0 0 10.4 10.1;" xml:space="preserve">
<style type="text/css">
	.st0{fill:#FFFFFF;}
</style>
<title>ico-arrow-down</title>
<g id="Capa_2">
	<g id="Capa_1-2">
		<path class="st0" d="M5.5,4.1C5.3,4,5.1,4,5,4.1c0,0,0,0,0,0L0.1,9C0,9.1,0,9.3,0.1,9.4c0,0,0,0,0,0L0.7,10c0.1,0.1,0.3,0.1,0.5,0
			c0,0,0,0,0,0l4.1-4.1L9.3,10c0.1,0.1,0.3,0.1,0.5,0c0,0,0,0,0,0l0.5-0.5c0.1-0.1,0.1-0.3,0-0.5c0,0,0,0,0,0L5.5,4.1z"/>
		<path class="st0" d="M0.7,6C0.8,6.1,1,6.1,1.1,6c0,0,0,0,0,0l4.1-4.1L9.3,6c0.1,0.1,0.3,0.1,0.5,0c0,0,0,0,0,0l0.5-0.5
			c0.1-0.1,0.1-0.3,0-0.5c0,0,0,0,0,0L5.5,0.1C5.3,0,5.1,0,5,0.1c0,0,0,0,0,0L0.1,5C0,5.1,0,5.3,0.1,5.4c0,0,0,0,0,0L0.7,6z"/>
	</g>
</g>
</svg>
