<?xml version="1.0" encoding="utf-8"?>
<!-- Generator: Adobe Illustrator 23.0.1, SVG Export Plug-In . SVG Version: 6.00 Build 0)  -->
<svg version="1.1" id="Capa_1" xmlns="http://www.w3.org/2000/svg" xmlns:xlink="http://www.w3.org/1999/xlink" x="0px" y="0px"
	 viewBox="0 0 47.8 47.8" style="enable-background:new 0 0 47.8 47.8;" xml:space="preserve">
<style type="text/css">
	.st0{opacity:0.6;}
	.st1{fill:#FFFFFF;}
</style>
<g>
	<path d="M544.5,636.6H100.7c-4.7,0-8.5-3.8-8.5-8.5V269.6c0-4.7,3.8-8.5,8.5-8.5h443.7c4.7,0,8.5,3.8,8.5,8.5V628
		C553,632.7,549.2,636.6,544.5,636.6L544.5,636.6z M109.3,619.5h426.7V278.2H109.3V619.5z M109.3,619.5"/>
	<path d="M100.7,585.4H49.5c-4.7,0-8.5-3.8-8.5-8.5V218.4c0-4.7,3.8-8.5,8.5-8.5h443.7c4.7,0,8.5,3.8,8.5,8.5v51.2
		c0,4.7-3.8,8.5-8.5,8.5h-384v298.7C109.3,581.5,105.4,585.4,100.7,585.4L100.7,585.4z M58.1,568.3h34.1V269.6
		c0-4.7,3.8-8.5,8.5-8.5h384V227H58.1V568.3z M58.1,568.3"/>
	<path d="M544.5,636.6H316c-3.4,0-6.4-2-7.8-5c-1.4-3.1-0.8-6.6,1.4-9.2l134.6-151.5c3.2-3.7,9.5-3.7,12.8,0l93.9,105.6
		c1.4,1.6,2.2,3.6,2.2,5.7V628C553,632.7,549.2,636.6,544.5,636.6L544.5,636.6z M335,619.5h201v-34.1l-85.3-96L335,619.5z
		 M335,619.5"/>
	<path d="M316,636.6H100.7c-4.7,0-8.5-3.8-8.5-8.5V486.2c0-2.1,0.8-4.1,2.2-5.7l110.9-124.8c3.2-3.7,9.5-3.7,12.8,0l170.7,192
		c2.9,3.2,2.9,8.1,0,11.3l-66.4,74.7C320.7,635.5,318.4,636.6,316,636.6L316,636.6z M109.3,619.5h202.9l58.8-66.1L211.7,374.2
		L109.3,489.4V619.5z M109.3,619.5"/>
	<path d="M390.9,423.2c-23.5,0-42.7-19.1-42.7-42.7c0-23.5,19.1-42.7,42.7-42.7c23.5,0,42.7,19.1,42.7,42.7
		C433.5,404.1,414.4,423.2,390.9,423.2L390.9,423.2z M390.9,355c-14.1,0-25.6,11.5-25.6,25.6c0,14.1,11.5,25.6,25.6,25.6
		s25.6-11.5,25.6-25.6C416.5,366.4,405,355,390.9,355L390.9,355z M390.9,355"/>
</g>
<title>ico-article-video</title>
<g>
	<g class="st0">
		<path d="M18.1,26.9c2.3,0,4.1-1.9,4.1-4.1c0-2.3-1.9-4.1-4.1-4.1c-2.3,0-4.1,1.9-4.1,4.1C14,25.1,15.8,26.9,18.1,26.9z M18.1,21.6
			c0.7,0,1.2,0.5,1.2,1.2c0,0.7-0.5,1.2-1.2,1.2c-0.7,0-1.2-0.5-1.2-1.2C16.9,22.1,17.4,21.6,18.1,21.6z"/>
		<path d="M10.8,38.1h21.3c0.5,0,1-0.3,1.3-0.8c0.3-0.5,0.2-1,0-1.5l-7.1-11.3c-0.3-0.4-0.7-0.7-1.2-0.7c-0.5,0-0.9,0.2-1.2,0.5
			l-5.4,6.5L16,29.2c-0.3-0.2-0.7-0.3-1.1-0.3c-0.4,0.1-0.7,0.3-1,0.6l-4.4,6.2c-0.3,0.5-0.4,1-0.1,1.5
			C9.7,37.8,10.2,38.1,10.8,38.1z M15.5,32.5l2.2,1.6c0.6,0.4,1.5,0.3,2-0.3l5-6l4.6,7.3H13.7L15.5,32.5z"/>
		<path d="M45.2,6.9H11.1c-0.8,0-1.5,0.7-1.5,1.5v5.4H4.7c-0.8,0-1.5,0.7-1.5,1.5v26.2c0,0.8,0.7,1.5,1.5,1.5h33.6
			c0.8,0,1.5-0.7,1.5-1.5v-5.4h5.4c0.8,0,1.5-0.7,1.5-1.5V8.4C46.6,7.6,46,6.9,45.2,6.9z M36.8,40H6.2V16.8h30.6V40z M43.7,33.1
			h-3.9V15.3c0-0.8-0.7-1.5-1.5-1.5H12.6V9.9h31.1V33.1z"/>
	</g>
	<g>
		<path class="st1" d="M16.1,24.9c2.3,0,4.1-1.9,4.1-4.1c0-2.3-1.9-4.1-4.1-4.1c-2.3,0-4.1,1.9-4.1,4.1C12,23.1,13.8,24.9,16.1,24.9
			z"/>
		<path class="st1" d="M8.8,36.1h21.3c0.5,0,1-0.3,1.3-0.8c0.3-0.5,0.2-1,0-1.5l-7.1-11.3c-0.3-0.4-0.7-0.7-1.2-0.7
			c-0.5,0-0.9,0.2-1.2,0.5l-5.4,6.5L14,27.2c-0.3-0.2-0.7-0.3-1.1-0.3c-0.4,0.1-0.7,0.3-1,0.6l-4.4,6.2c-0.3,0.5-0.4,1-0.1,1.5
			C7.7,35.8,8.2,36.1,8.8,36.1z"/>
		<path class="st1" d="M43.2,4.9H9.1c-0.8,0-1.5,0.7-1.5,1.5v5.4H2.7c-0.8,0-1.5,0.7-1.5,1.5v26.2c0,0.8,0.7,1.5,1.5,1.5h33.6
			c0.8,0,1.5-0.7,1.5-1.5v-5.4h5.4c0.8,0,1.5-0.7,1.5-1.5V6.4C44.6,5.6,44,4.9,43.2,4.9z M34.8,38H4.2V14.8h30.6V38z M41.7,31.1
			h-3.9V13.3c0-0.8-0.7-1.5-1.5-1.5H10.6V7.9h31.1V31.1z"/>
	</g>
</g>
</svg>
