<svg xmlns="http://www.w3.org/2000/svg" viewBox="0 0 47.83 47.83"><defs><style>.cls-1{opacity:0.6;}.cls-2{fill:#fff;}</style></defs><title>ico-article-video</title><g id="Capa_2" data-name="Capa 2"><g id="Capa_2-2" data-name="Capa 2"><g class="cls-1"><path d="M44.76,13.46a22.91,22.91,0,1,0-8.38,31.3,22.9,22.9,0,0,0,8.38-31.3ZM34.08,40.79a18.33,18.33,0,1,1,6.71-25,18.33,18.33,0,0,1-6.71,25ZM33.16,24l-12-7c-1.09-.64-2-.13-2,1.14L19.26,32c0,1.27.9,1.78,2,1.15l11.9-6.88a1.22,1.22,0,0,0,0-2.3Zm0,0"/></g><path class="cls-2" d="M42.76,11.46a22.91,22.91,0,1,0-8.38,31.3,22.9,22.9,0,0,0,8.38-31.3ZM32.08,38.79a18.33,18.33,0,1,1,6.71-25,18.33,18.33,0,0,1-6.71,25ZM31.16,22l-12-7c-1.09-.64-2-.13-2,1.14L17.26,30c0,1.27.9,1.78,2,1.15l11.9-6.88a1.22,1.22,0,0,0,0-2.3Zm0,0"/></g></g></svg>