<svg xmlns="http://www.w3.org/2000/svg" viewBox="0 0 22.4 18.2"><defs><style>.cls-1{fill:#fff;}</style></defs><title>ico-tw-b</title><g id="Capa_2" data-name="Capa 2"><g id="Capa_1-2" data-name="Capa 1"><path class="cls-1" d="M20.11,4.53c0,.2,0,.4,0,.6A13,13,0,0,1,7,18.2a13,13,0,0,1-7-2.06,9.24,9.24,0,0,0,6.8-1.9A4.6,4.6,0,0,1,2.51,11a4.42,4.42,0,0,0,.86.08A4.54,4.54,0,0,0,4.59,11,4.6,4.6,0,0,1,.9,6.46a.3.3,0,0,1,0-.06A4.53,4.53,0,0,0,3,7,4.6,4.6,0,0,1,1.56.84,13,13,0,0,0,11,5.64a4.6,4.6,0,0,1,7.83-4.19A9.08,9.08,0,0,0,21.78.33a4.62,4.62,0,0,1-2,2.54,9.11,9.11,0,0,0,2.64-.72,9.35,9.35,0,0,1-2.29,2.38Z"/><path class="cls-1" d="M20.11,4.53"/></g></g></svg>