<?xml version="1.0" encoding="utf-8"?>
<!-- Generator: Adobe Illustrator 22.0.1, SVG Export Plug-In . SVG Version: 6.00 Build 0)  -->
<svg version="1.1" id="Layer_1" xmlns="http://www.w3.org/2000/svg" xmlns:xlink="http://www.w3.org/1999/xlink" x="0px" y="0px"
	 viewBox="0 0 512 512" style="enable-background:new 0 0 512 512;" xml:space="preserve">
<style type="text/css">
	.st0{fill:#FFFFFF;}
</style>
<path class="st0" d="M512,20.7c0-0.7,0-1.4-0.1-2c0-0.3-0.1-0.6-0.1-0.9c-0.1-0.4-0.1-0.7-0.2-1.1c-0.1-0.4-0.2-0.7-0.3-1
	c-0.1-0.3-0.1-0.6-0.2-0.9c-0.1-0.3-0.2-0.7-0.3-1c-0.1-0.3-0.2-0.6-0.3-0.9c-0.1-0.3-0.3-0.6-0.4-0.9c-0.1-0.3-0.3-0.6-0.5-0.9
	c-0.2-0.3-0.3-0.6-0.5-0.8c-0.2-0.3-0.4-0.6-0.5-0.9c-0.2-0.3-0.4-0.6-0.7-0.9c-0.2-0.2-0.4-0.5-0.6-0.7c-0.4-0.5-0.9-1-1.3-1.5
	c0,0,0,0,0,0c0,0,0,0,0,0c-0.5-0.5-1-0.9-1.5-1.4c-0.2-0.2-0.5-0.4-0.7-0.6c-0.3-0.2-0.6-0.4-0.9-0.7c-0.3-0.2-0.6-0.4-0.9-0.5
	c-0.3-0.2-0.6-0.3-0.8-0.5c-0.3-0.2-0.6-0.3-0.9-0.4c-0.3-0.1-0.6-0.3-0.9-0.4c-0.3-0.1-0.6-0.2-0.9-0.3c-0.3-0.1-0.7-0.2-1-0.3
	c-0.3-0.1-0.6-0.2-0.9-0.2c-0.3-0.1-0.7-0.2-1-0.3c-0.4-0.1-0.7-0.1-1.1-0.2c-0.3,0-0.6-0.1-0.9-0.1c-0.7-0.1-1.3-0.1-2-0.1
	c0,0-0.1,0-0.1,0H334.4c-11.4,0-20.7,9.3-20.7,20.7s9.3,20.7,20.7,20.7h106.9L293.7,189.1c-8.1,8.1-8.1,21.2,0,29.2
	c4,4,9.3,6.1,14.6,6.1c5.3,0,10.6-2,14.6-6.1L470.6,70.6v106.9c0,11.4,9.3,20.7,20.7,20.7c11.4,0,20.7-9.3,20.7-20.7L512,20.7
	C512,20.7,512,20.7,512,20.7z"/>
<path class="st0" d="M218.3,293.7c-8.1-8.1-21.2-8.1-29.2,0L41.4,441.4V334.4c0-11.4-9.3-20.7-20.7-20.7C9.3,313.8,0,323,0,334.4
	v156.9c0,0,0,0.1,0,0.1c0,0.6,0,1.3,0.1,1.9c0,0.3,0.1,0.6,0.1,1c0.1,0.4,0.1,0.7,0.2,1c0.1,0.4,0.2,0.7,0.3,1.1
	c0.1,0.3,0.1,0.6,0.2,0.9c0.1,0.3,0.2,0.7,0.4,1c0.1,0.3,0.2,0.6,0.3,0.9c0.1,0.3,0.3,0.6,0.4,0.9c0.1,0.3,0.3,0.6,0.4,0.9
	c0.2,0.3,0.3,0.6,0.5,0.9c0.2,0.3,0.3,0.6,0.5,0.9c0.2,0.3,0.5,0.6,0.7,1c0.2,0.2,0.3,0.5,0.5,0.7c0.9,1.1,1.8,2,2.9,2.9
	c0.2,0.2,0.5,0.4,0.7,0.5c0.3,0.2,0.6,0.5,0.9,0.7c0.3,0.2,0.6,0.4,0.9,0.6c0.3,0.2,0.5,0.3,0.8,0.5c0.3,0.2,0.6,0.3,1,0.5
	c0.3,0.1,0.6,0.3,0.9,0.4c0.3,0.1,0.6,0.2,0.9,0.3c0.3,0.1,0.6,0.2,1,0.3c0.3,0.1,0.6,0.2,0.9,0.2c0.3,0.1,0.7,0.2,1,0.2
	c0.4,0.1,0.7,0.1,1.1,0.2c0.3,0,0.6,0.1,0.9,0.1c0.7,0.1,1.4,0.1,2,0.1h156.9c11.4,0,20.7-9.3,20.7-20.7c0-11.4-9.3-20.7-20.7-20.7
	H70.6l147.7-147.7C226.4,314.8,226.4,301.7,218.3,293.7z"/>
</svg>
