<?xml version="1.0" encoding="utf-8"?>
<!-- Generator: Adobe Illustrator 21.0.2, SVG Export Plug-In . SVG Version: 6.00 Build 0)  -->
<svg version="1.1" id="Capa_1" xmlns="http://www.w3.org/2000/svg" xmlns:xlink="http://www.w3.org/1999/xlink" x="0px" y="0px"
	 viewBox="0 0 18 18" style="enable-background:new 0 0 18 18;" xml:space="preserve">
<style type="text/css">
	.st0{fill:#FFFFFF;}
</style>
<title>ico-tw-b</title>
<g>
	<path id="WhatsApp" class="st0" d="M18,8.8c0,4.8-4,8.8-8.8,8.8c-1.5,0-3-0.4-4.3-1.1L0,18l1.6-4.7C0.8,12,0.3,10.4,0.3,8.8
		c0-4.8,4-8.8,8.8-8.8C14,0,18,3.9,18,8.8z M9.2,1.4c-4.1,0-7.4,3.3-7.4,7.4c0,1.6,0.5,3.1,1.4,4.3l-0.9,2.7l2.9-0.9
		c1.2,0.8,2.6,1.2,4.1,1.2c4.1,0,7.4-3.3,7.4-7.4S13.3,1.4,9.2,1.4z M13.6,10.8c-0.1-0.1-0.2-0.1-0.4-0.3c-0.2-0.1-1.3-0.6-1.5-0.7
		c-0.2-0.1-0.3-0.1-0.5,0.1c-0.1,0.2-0.6,0.7-0.7,0.8c-0.1,0.1-0.3,0.2-0.5,0.1c-0.2-0.1-0.9-0.3-1.7-1.1C7.7,9.2,7.3,8.5,7.1,8.3
		C7,8.1,7.1,8,7.2,7.8c0.1-0.1,0.2-0.3,0.3-0.4c0.1-0.1,0.1-0.2,0.2-0.4c0.1-0.1,0-0.3,0-0.4C7.7,6.6,7.3,5.6,7.1,5.1
		C6.9,4.7,6.7,4.8,6.6,4.8c-0.1,0-0.3,0-0.4,0S5.8,4.8,5.6,5C5.4,5.2,4.9,5.8,4.9,6.8c0,1.1,0.8,2.1,0.9,2.2
		c0.1,0.1,1.5,2.4,3.7,3.2c2.2,0.9,2.2,0.6,2.6,0.5c0.4,0,1.3-0.5,1.5-1C13.7,11.3,13.7,10.9,13.6,10.8z"/>
</g>
</svg>
