<svg xmlns="http://www.w3.org/2000/svg" viewBox="0 0 20 20"><defs><style>.cls-1{fill:none;}.cls-2{fill:#fff;}</style></defs><title>ico-share-1</title><g id="Capa_2" data-name="Capa 2"><g id="TODO"><g id="Nuevo_símbolo_2" data-name="Nuevo símbolo 2"><path class="cls-1" d="M0,10A10,10,0,1,1,10,20,10,10,0,0,1,0,10Zm0,0"/><path class="cls-2" d="M12.53,11.65a2.16,2.16,0,0,0-1.51.61L8,10.52A2.17,2.17,0,0,0,8,9.43l3-1.74a2.17,2.17,0,1,0-.56-1l-3,1.77a2.17,2.17,0,1,0,.09,3.11l3,1.73a2.17,2.17,0,1,0,2.1-1.62Z"/></g></g></g></svg>