<svg xmlns="http://www.w3.org/2000/svg" viewBox="0 0 18.64 23.95"><defs><style>.cls-1{fill:#fff;}</style></defs><title>ico-pi-b</title><g id="Capa_2" data-name="Capa 2"><g id="Capa_1-2" data-name="Capa 1"><path class="cls-1" d="M10.88,17.37c-1.46-.11-2.07-.83-3.22-1.52C7,19.14,6.27,22.31,4,24c-.71-5,1-8.73,1.84-12.7-1.38-2.31.16-7,3.06-5.81,3.56,1.4-3.09,8.59,1.38,9.48,4.65.94,6.56-8.08,3.67-11-4.18-4.24-12.15-.1-11.17,6,.24,1.47,1.78,1.92.62,4C.7,13.26-.09,11.16,0,8.34.18,3.75,4.14.53,8.12.08c5-.56,9.75,1.84,10.41,6.58.73,5.34-2.27,11.14-7.66,10.71Z"/><path class="cls-1" d="M10.88,17.37"/></g></g></svg>